<?xml version="1.0" encoding="UTF-8"?>
<svg width="24px" height="24px" viewBox="0 0 24 24" version="1.1" xmlns="http://www.w3.org/2000/svg" xmlns:xlink="http://www.w3.org/1999/xlink">
    <title>bg-03</title>
    <g id="Page-1" stroke="none" stroke-width="1" fill="none" fill-rule="evenodd">
        <g id="bg-03" stroke="#979797">
            <path d="M23.5,0.5 L23.5,23.5 L0.5,23.5 L0.5,0.5 L23.5,0.5 Z" id="Path"></path>
            <g id="Group" transform="translate(0, 1.7143)">
                <path d="M0,5.85547526 C1.14285714,5.85547526 1.71428571,5.85547526 1.71428571,5.85547526" id="Path-2"></path>
                <path d="M0,3.0561423 C1.14285714,3.0561423 1.71428571,3.0561423 1.71428571,3.0561423" id="Path-2"></path>
                <path d="M0,0.256809339 C1.14285714,0.256809339 1.71428571,0.256809339 1.71428571,0.256809339" id="Path-2"></path>
                <path d="M0,8.65480823 C1.14285714,8.65480823 1.71428571,8.65480823 1.71428571,8.65480823" id="Path-2"></path>
                <path d="M0,11.4541412 C1.14285714,11.4541412 1.71428571,11.4541412 1.71428571,11.4541412" id="Path-2"></path>
                <path d="M0,19.8521401 C1.14285714,19.8521401 1.71428571,19.8521401 1.71428571,19.8521401" id="Path-2"></path>
                <path d="M0,17.0528071 C1.14285714,17.0528071 1.71428571,17.0528071 1.71428571,17.0528071" id="Path-2"></path>
                <path d="M0,14.2534742 C1.14285714,14.2534742 1.71428571,14.2534742 1.71428571,14.2534742" id="Path-2"></path>
            </g>
        </g>
    </g>
</svg>